<svg width="209" height="379" viewBox="0 0 209 379" fill="none" xmlns="http://www.w3.org/2000/svg">
<path d="M208.484 104.312C208.484 46.702 161.814 0 104.242 0C46.6708 0 0 46.702 0 104.312V274.688C0 332.298 46.6708 379 104.242 379C161.814 379 208.484 332.298 208.484 274.688V104.312Z" fill="#00B6AA"/>
<path d="M208.484 104.312C208.484 46.702 161.814 0 104.242 0C46.6708 0 0 46.702 0 104.312V152.991C0 210.601 46.6708 257.303 104.242 257.303C161.814 257.303 208.484 210.601 208.484 152.991V104.312Z" fill="#006CFB"/>
<path d="M127.54 173.471C130.764 173.471 133.378 170.859 133.378 167.638C133.378 164.417 130.764 161.805 127.54 161.805H63.744C60.5201 161.805 57.9065 164.417 57.9065 167.638C57.9065 170.859 60.5201 173.471 63.744 173.471H127.54Z" fill="white"/>
<path d="M163.208 153.13C166.432 153.13 169.046 150.518 169.046 147.297C169.046 144.076 166.432 141.464 163.208 141.464H106.657C103.433 141.464 100.82 144.076 100.82 147.297C100.82 150.518 103.433 153.13 106.657 153.13H163.208Z" fill="white"/>
<path d="M50.7659 129.225L62.0762 117.907L75.4018 129.521L103.773 96.0889L115.657 106.85L76.1315 153.13L50.7659 129.225Z" fill="white"/>
</svg>
